<svg width="155" height="78" viewBox="0 0 155 78" fill="none" xmlns="http://www.w3.org/2000/svg">
<path d="M12.2685 53.3995H8.48291V38.9749H19.8397V41.9511H12.2685V53.3995Z" fill="white"/>
<path d="M30.4041 38.9749C32.3663 38.9749 33.9915 39.094 35.2402 40.2646C36.3501 41.2964 36.5681 42.5861 36.5681 43.6972C36.5681 44.8083 36.3699 46.0583 35.3987 47.1099C34.0906 48.5385 32.2275 48.6178 30.1464 48.6178H26.4599V53.3798H22.6743V38.9551H30.3843L30.4041 38.9749ZM26.4797 45.84H29.8888C30.6023 45.84 31.6131 45.7408 32.1284 45.2448C32.4455 44.9472 32.6636 44.4115 32.6636 43.7567C32.6636 43.0424 32.3663 42.5662 31.9699 42.2686C31.8311 42.1694 31.3158 41.8519 30.1266 41.8519H26.4797V45.8202V45.84Z" fill="white"/>
<path d="M40.4725 53.3995H36.5283L42.9896 38.9749H46.7158L53.1771 53.3995H49.2329L47.9842 50.4829H41.741L40.4923 53.3995H40.4725ZM47.0527 48.0027L44.8329 42.6058L42.6527 48.0027H47.0527Z" fill="white"/>
<path d="M59.3212 53.3995H55.5356V38.9749H59.3212V44.3717H66.1591V38.9749H69.9447V53.3995H66.1591V47.2685H59.3212V53.3995Z" fill="white"/>
<path d="M72.8579 41.8519V38.9749H86.6922V41.8519H81.6778V53.3797H77.8922V41.8519H72.8777H72.8579Z" fill="white"/>
<path d="M93.3327 44.332H97.6336C98.8823 44.332 100.666 44.4511 101.915 45.463C103.163 46.4749 103.362 47.7646 103.362 48.7567C103.362 50.9194 102.39 52.0106 101.498 52.5662C100.309 53.3003 98.1886 53.3995 97.1777 53.3995H89.5669V38.9749H93.3525V44.332H93.3327ZM93.3327 50.6416H97.0588C97.4354 50.6416 98.4264 50.6217 98.9814 50.1654C99.3381 49.8678 99.5958 49.3321 99.5958 48.717C99.5958 48.1019 99.2985 47.6654 98.9615 47.4273C98.466 47.0503 97.6931 47.0106 97.1381 47.0106H93.3525V50.6416H93.3327ZM108.574 38.9749V53.3995H104.789V38.9749H108.574Z" fill="white"/>
<path d="M123.953 30.4431H109.524C108.652 30.4431 108.315 29.3121 109.049 28.8161L152.653 0.145294C153.366 -0.311057 154.238 0.383388 153.961 1.17704L126.55 77.229C126.213 78.1616 124.845 77.9235 124.845 76.9314V31.3161C124.845 30.8201 124.449 30.4431 123.973 30.4431" fill="white"/>
<path d="M3.80543 77.9037H0V63.479H14.1514V77.9037H10.346V66.3758H3.78561V77.9037H3.80543Z" fill="white"/>
<path d="M30.5034 69.1934V71.9117H22.5754V75.0069H32.1683V77.8839H18.77V63.4592H31.9305V66.3362H22.5556V69.1735H30.4836L30.5034 69.1934Z" fill="white"/>
<path d="M43.8013 63.4791C45.7634 63.4791 47.3887 63.5981 48.6571 64.7688C49.7671 65.8005 50.0049 67.0902 50.0049 68.2013C50.0049 69.3124 49.8067 70.5624 48.8355 71.614C47.5076 73.0426 45.6643 73.122 43.5832 73.122H39.8967V77.8839H36.0913V63.4592H43.8211L43.8013 63.4791ZM39.8571 70.3442H43.2859C43.9995 70.3442 45.0103 70.245 45.5256 69.7489C45.8427 69.4513 46.0607 68.9156 46.0607 68.2608C46.0607 67.5465 45.7634 67.0704 45.367 66.7727C45.2283 66.6735 44.713 66.3561 43.504 66.3561H39.8571V70.3243V70.3442Z" fill="white"/>
<path d="M61.0654 63.4791C62.5122 63.4791 63.9393 63.5386 64.9501 64.2132C65.287 64.4315 66.3573 65.2846 66.3573 67.11C66.3573 68.241 65.9014 68.9751 65.4852 69.372C64.7519 70.0862 63.6023 70.245 63.5032 70.2648V70.3442C64.4348 70.4235 65.5645 70.8204 66.2186 71.4751C66.9915 72.2291 67.1105 73.2013 67.1105 73.9355C67.1105 75.2252 66.6348 76.1974 66.0402 76.753C64.9104 77.8045 62.7897 77.8839 61.2041 77.8839H52.7212V63.4592H61.0456L61.0654 63.4791ZM56.5266 69.2132H59.9356C60.8275 69.2132 61.5212 69.1735 61.9771 68.7767C62.1951 68.5981 62.4528 68.2212 62.4528 67.6259C62.4528 67.0307 62.1555 66.6735 61.878 66.4751C61.442 66.1775 60.8077 66.1577 60.1537 66.1577H56.5464V69.2132H56.5266ZM56.5266 75.2252H60.5699C61.7789 75.2252 62.2348 74.9672 62.2942 74.9077C62.651 74.7093 63.0077 74.2529 63.0077 73.499C63.0077 72.7251 62.6113 72.2886 62.2942 72.0902C61.8185 71.7926 60.8474 71.7728 60.4906 71.7728H56.5068V75.1855L56.5266 75.2252Z" fill="white"/>
<path d="M74.1259 68.8362H78.4467C79.7152 68.8362 81.4791 68.9552 82.7476 69.9671C84.0161 70.979 84.1945 72.2687 84.1945 73.2608C84.1945 75.4235 83.2233 76.5148 82.3116 77.0703C81.1224 77.8045 78.9818 77.9037 77.971 77.9037H70.3403V63.479H74.1458V68.8362H74.1259ZM74.1259 75.1457H77.8521C78.2287 75.1457 79.2197 75.1259 79.7746 74.6695C80.1314 74.3719 80.389 73.8362 80.389 73.2211C80.389 72.606 80.0917 72.1695 79.7548 71.9314C79.2593 71.5544 78.4665 71.5148 77.9115 71.5148H74.1061V75.1457H74.1259ZM89.4071 63.479V77.9037H85.6017V63.479H89.4071Z" fill="white"/>
<path d="M104.114 63.479H108.474L102.727 70.4235L108.593 77.9037H103.737L100.289 72.983L96.7211 77.9037H92.103L98.0292 70.4235L92.4003 63.479H97.0382L100.586 68.2608L104.134 63.479H104.114Z" fill="white"/>
</svg>
