<svg width="384" height="197" viewBox="0 0 384 197" fill="none" xmlns="http://www.w3.org/2000/svg">
<path d="M372.4 -48.95H368.46V171.83H372.4V-48.95Z" fill="#FF0000"/>
<path d="M354.43 -53.05H350.03V167.72H354.43V-53.05Z" fill="#FF0000"/>
<path d="M336.46 -57.1499H331.61V163.62H336.46V-57.1499Z" fill="#FF0000"/>
<path d="M318.48 -61.26H313.19V159.52H318.48V-61.26Z" fill="#FF0000"/>
<path d="M300.52 -65.3601H294.77V155.42H300.52V-65.3601Z" fill="#FF0000"/>
<path d="M282.54 -69.46H276.34V151.31H282.54V-69.46Z" fill="#FF0000"/>
<path d="M264.58 -73.5601H257.92V147.21H264.58V-73.5601Z" fill="#FF0000"/>
<path d="M246.6 -77.6699H239.5V143.11H246.6V-77.6699Z" fill="#FF0000"/>
<path d="M228.64 -81.77H221.07V139.01H228.64V-81.77Z" fill="#FF0000"/>
<path d="M210.67 -85.8701H202.65V134.9H210.67V-85.8701Z" fill="#FF0000"/>
<path d="M192.7 -89.97H184.23V130.8H192.7V-89.97Z" fill="#FF0000"/>
<path d="M174.73 -94.0801H165.81V126.7H174.73V-94.0801Z" fill="#FF0000"/>
<path d="M156.75 -98.1799H147.38V122.6H156.75V-98.1799Z" fill="#FF0000"/>
<path d="M138.79 -102.28H128.96V118.49H138.79V-102.28Z" fill="#FF0000"/>
<path d="M120.81 -106.38H110.54V114.39H120.81V-106.38Z" fill="#FF0000"/>
<path d="M102.85 -110.49H92.1201V110.29H102.85V-110.49Z" fill="#FF0000"/>
<path d="M84.8699 -114.59H73.6899V106.18H84.8699V-114.59Z" fill="#FF0000"/>
<path d="M66.91 -118.69H55.27V102.08H66.91V-118.69Z" fill="#FF0000"/>
<path d="M48.9301 -122.79H36.8501V97.9799H48.9301V-122.79Z" fill="#FF0000"/>
<path d="M30.9599 -126.9H18.4199V93.8801H30.9599V-126.9Z" fill="#FF0000"/>
<path d="M12.99 -131H0V89.78H12.99V-131Z" fill="#FF0000"/>
</svg>
