<svg width="235" height="41" viewBox="0 0 235 41" fill="none" xmlns="http://www.w3.org/2000/svg">
<path d="M23.585 24.1986L19.6493 20.2879L23.585 16.3479V8.49731L11.8071 20.2879L23.585 32.0786V24.1986Z" fill="#FF0000"/>
<path d="M0 0.587891V39.9586H39.3282V0.587891H0ZM33.6889 34.3426H5.60992V6.23328H33.6889V34.3426Z" fill="#FF0000"/>
<path d="M61.9148 33.7546L64.7638 36.9595C64.2058 37.6064 63.5596 38.1651 62.8253 38.6355C61.2099 39.7528 59.3301 40.2821 57.2154 40.2821C54.4545 40.2821 52.1635 39.4 50.3131 37.6064C48.4628 35.8422 47.5522 33.6664 47.5522 31.1083C47.5522 28.5503 48.4628 26.3744 50.3131 24.6103C52.1635 22.8461 54.4545 21.9346 57.2154 21.9346C59.3008 21.9346 61.1512 22.4932 62.7666 23.6105C63.5009 24.1104 64.1177 24.6691 64.617 25.2571L61.768 28.4621C61.3861 28.0504 60.9749 27.6682 60.505 27.3447C59.4183 26.6097 58.3315 26.2274 57.186 26.2274C55.835 26.2274 54.6895 26.6979 53.7496 27.6388C52.8097 28.5797 52.3398 29.7264 52.3398 31.0789C52.3398 32.4315 52.8097 33.5782 53.7496 34.5191C54.6895 35.46 55.835 35.9304 57.186 35.9304C58.3021 35.9304 59.4183 35.5482 60.5637 34.8131C61.063 34.4897 61.5036 34.1074 61.8854 33.6958L61.9148 33.7546Z" fill="black"/>
<path d="M66.8193 39.8412V22.4934H71.5187V32.02L78.9497 22.4934H83.0323V39.8412H78.3329V30.3146L70.9019 39.8412H66.8193Z" fill="black"/>
<path d="M86.5571 39.8412V22.4934H91.2565V28.8151H97.5714V22.4934H102.271V39.8412H97.5714V33.2843H91.2565V39.8412H86.5571Z" fill="black"/>
<path d="M105.795 39.8412V22.4934H119.042V26.698H110.495V29.1679H117.045V33.1373H110.495V35.6072H119.277V39.8118H105.795V39.8412Z" fill="black"/>
<path d="M121.832 39.8412V22.4934H129.615C131.525 22.4934 133.052 23.0815 134.256 24.2282C135.46 25.3749 136.048 26.8157 136.048 28.5798C136.048 30.344 135.46 31.7848 134.256 32.9315C133.052 34.0782 131.525 34.6663 129.615 34.6663H126.531V39.8706H121.832V39.8412ZM126.531 30.4322H129.38C129.939 30.4322 130.379 30.2558 130.79 29.8736C131.172 29.4913 131.378 29.0797 131.378 28.5798C131.378 28.08 131.172 27.6389 130.79 27.2861C130.408 26.9039 129.939 26.7274 129.38 26.7274H126.531V30.4322Z" fill="black"/>
<path d="M138.603 39.8412V22.4934H150.733V26.9627H143.302V39.8412H138.603Z" fill="black"/>
<path d="M152.79 39.8412V22.4934H157.489V32.02L164.92 22.4934H169.003V39.8412H164.303V30.3146L156.872 39.8412H152.79Z" fill="black"/>
<path d="M171.176 39.8411L174.759 33.4018C174.201 33.1372 173.702 32.7844 173.261 32.3139C172.263 31.3142 171.763 30.0499 171.763 28.4621C171.763 26.7862 172.351 25.3748 173.555 24.2281C174.73 23.0814 176.257 22.5227 178.078 22.5227H186.243V39.8705H181.544V34.431H178.959L176.11 39.8705H171.176V39.8411ZM178.342 30.1969H181.573V26.7273H178.342C177.784 26.7273 177.344 26.9038 177.021 27.2272C176.668 27.5506 176.492 27.9623 176.492 28.4621C176.492 28.962 176.668 29.3736 177.021 29.6971C177.373 30.0205 177.814 30.1969 178.342 30.1969Z" fill="black"/>
<path d="M48.4917 17.7594V13.5548C48.6679 13.6136 48.7854 13.6724 48.9029 13.6724C49.226 13.7606 49.5784 13.79 49.9603 13.79C51.2232 13.79 52.075 13.2901 52.5449 12.2904L52.6624 12.0552L46.7588 0.558594H51.9575L55.1296 7.73294H55.2177L57.8905 0.558594H63.0892L57.0387 13.4371C56.3045 14.9661 55.4233 16.1422 54.4541 16.9361C53.4554 17.73 52.2219 18.1416 50.7533 18.1416C50.1365 18.1416 49.5784 18.0828 49.1085 17.9652L48.5211 17.7594H48.4917Z" fill="black"/>
<path d="M64.4111 17.877V0.558594H69.1105V6.88025H75.4254V0.558594H80.1248V17.877H75.4254V11.3201H69.1105V17.877H64.4111Z" fill="black"/>
<path d="M83.6494 17.877V0.558594H88.3488V10.0852L95.7798 0.558594H99.8624V17.877H95.163V8.35041L87.732 17.877H83.6494Z" fill="black"/>
<path d="M103.387 17.877V0.558594H111.053C112.962 0.558594 114.431 0.99964 115.518 1.88173C116.575 2.76382 117.133 3.85174 117.133 5.14547C117.133 6.3216 116.692 7.2625 115.811 8.02698C115.488 8.32101 115.048 8.55623 114.519 8.73265C115.165 8.96787 115.753 9.2619 116.252 9.64414C117.397 10.5262 117.985 11.673 117.985 13.0549C117.985 14.4368 117.427 15.5836 116.311 16.4951C115.194 17.4066 113.638 17.877 111.67 17.877H103.387ZM108.087 7.23309H110.671C111.171 7.23309 111.552 7.08608 111.846 6.82145C112.14 6.55682 112.287 6.20398 112.287 5.73354C112.287 5.26309 112.14 4.93965 111.846 4.64562C111.552 4.38099 111.171 4.23398 110.671 4.23398H108.087V7.20369V7.23309ZM108.087 14.1722H111.288C111.846 14.1722 112.287 13.9958 112.61 13.6724C112.962 13.3489 113.138 12.9373 113.138 12.4374C113.138 11.9376 112.962 11.5259 112.61 11.2025C112.257 10.8791 111.817 10.7027 111.288 10.7027H108.087V14.1722Z" fill="black"/>
<path d="M120.393 17.877V0.558594H133.639V4.76323H125.092V7.23309H131.642V11.2025H125.092V13.6724H133.874V17.877H120.393Z" fill="black"/>
<path d="M136.43 17.877V0.558594H144.213C146.122 0.558594 147.65 1.14666 148.854 2.29338C150.058 3.44009 150.645 4.88085 150.645 6.64503C150.645 8.40921 150.058 9.84997 148.854 10.9967C147.65 12.1434 146.122 12.7315 144.213 12.7315H141.129V17.9358H136.43V17.877ZM141.129 8.46802H143.978C144.536 8.46802 144.977 8.2916 145.388 7.90936C145.77 7.52712 145.975 7.11548 145.975 6.61563C145.975 6.11577 145.77 5.67473 145.388 5.32189C145.006 4.93965 144.536 4.76323 143.978 4.76323H141.129V8.46802Z" fill="black"/>
<path d="M166.564 11.8203L169.413 15.0252C168.855 15.6721 168.209 16.2307 167.475 16.7012C165.859 17.8185 163.98 18.3478 161.865 18.3478C159.104 18.3478 156.813 17.4657 154.963 15.6721C153.112 13.9079 152.202 11.7321 152.202 9.174C152.202 6.61593 153.112 4.44011 154.963 2.67592C156.813 0.911739 159.104 0.000244141 161.865 0.000244141C163.95 0.000244141 165.801 0.558902 167.416 1.67622C168.15 2.17607 168.767 2.73473 169.266 3.32279L166.417 6.52773C166.036 6.11608 165.624 5.73384 165.154 5.41041C164.068 4.67533 162.981 4.29309 161.835 4.29309C160.484 4.29309 159.339 4.76354 158.399 5.70444C157.459 6.64534 156.989 7.79206 156.989 9.1446C156.989 10.4971 157.459 11.6439 158.399 12.5848C159.339 13.5257 160.484 13.9961 161.835 13.9961C162.952 13.9961 164.068 13.6139 165.213 12.8788C165.712 12.5554 166.153 12.1731 166.535 11.7615L166.564 11.8203Z" fill="black"/>
<path d="M171.47 17.877V0.558594H176.169V10.0852L183.571 0.558594H187.653V17.877H182.954V8.35041L175.523 17.877H171.44H171.47Z" fill="black"/>
<path d="M194.555 17.877V4.76323H189.738V0.558594H204.071V4.76323H199.255V17.877H194.555Z" fill="black"/>
<path d="M206.128 17.877V0.558594H219.374V4.76323H210.827V7.23309H217.377V11.2025H210.827V13.6724H219.609V17.877H206.128Z" fill="black"/>
<path d="M225.483 17.877V4.76323H220.667V0.558594H235V4.76323H230.183V17.877H225.483Z" fill="black"/>
</svg>
